<?xml version="1.0" encoding="UTF-8" standalone="no"?>
<svg
   xmlns:dc="http://purl.org/dc/elements/1.1/"
   xmlns:cc="http://creativecommons.org/ns#"
   xmlns:rdf="http://www.w3.org/1999/02/22-rdf-syntax-ns#"
   xmlns:svg="http://www.w3.org/2000/svg"
   xmlns="http://www.w3.org/2000/svg"
   version="1.1"
   id="Layer_1"
   x="0px"
   y="0px"
   viewBox="0 0 358.70002 179.8"
   xml:space="preserve"
   width="358.70001"
   height="179.8"><metadata
   id="metadata856"><rdf:RDF><cc:Work
       rdf:about=""><dc:format>image/svg+xml</dc:format><dc:type
         rdf:resource="http://purl.org/dc/dcmitype/StillImage" /><dc:title></dc:title></cc:Work></rdf:RDF></metadata><defs
   id="defs854" />
<style
   type="text/css"
   id="style833">
	.st0{fill:url(#SVGID_1_);}
	.st1{fill:url(#SVGID_2_);}
	.st2{fill-rule:evenodd;clip-rule:evenodd;fill:#29ABE2;}
</style>
<linearGradient
   id="SVGID_1_"
   gradientUnits="userSpaceOnUse"
   x1="224.78529"
   y1="257.7536"
   x2="348.06631"
   y2="133.4581"
   gradientTransform="matrix(1,0,0,-1,0,272)">
	<stop
   offset="0.21"
   style="stop-color:#F15A24"
   id="stop835" />
	<stop
   offset="0.6841"
   style="stop-color:#FBB03B"
   id="stop837" />
</linearGradient>
<path
   class="st0"
   d="m 271.6,0 c -20,0 -41.9,10.9 -65,32.4 -10.9,10.1 -20.5,21.1 -27.5,29.8 0,0 11.2,12.9 23.5,26.8 6.7,-8.4 16.2,-19.8 27.3,-30.1 20.5,-19.2 33.9,-23.1 41.6,-23.1 28.8,0 52.2,24.2 52.2,54.1 0,29.6 -23.4,53.8 -52.2,54.1 -1.4,0 -3,-0.2 -5,-0.6 8.4,3.9 17.5,6.7 26,6.7 52.8,0 63.2,-36.5 63.8,-39.1 1.5,-6.7 2.4,-13.7 2.4,-20.9 C 358.6,40.4 319.6,0 271.6,0 Z"
   id="path840"
   style="fill:url(#SVGID_1_)" />
<linearGradient
   id="SVGID_2_"
   gradientUnits="userSpaceOnUse"
   x1="133.94611"
   y1="106.4262"
   x2="10.6653"
   y2="230.7215"
   gradientTransform="matrix(1,0,0,-1,0,272)">
	<stop
   offset="0.21"
   style="stop-color:#ED1E79"
   id="stop842" />
	<stop
   offset="0.8929"
   style="stop-color:#522785"
   id="stop844" />
</linearGradient>
<path
   class="st1"
   d="m 87.1,179.8 c 20,0 41.9,-10.9 65,-32.4 10.9,-10.1 20.5,-21.1 27.5,-29.8 0,0 -11.2,-12.9 -23.5,-26.8 -6.7,8.4 -16.2,19.8 -27.3,30.1 -20.5,19 -34,23.1 -41.6,23.1 C 58.4,144 35,119.8 35,89.9 35,60.3 58.4,36.1 87.2,35.8 c 1.4,0 3,0.2 5,0.6 C 83.8,32.5 74.7,29.7 66.2,29.7 13.4,29.6 3,66.1 2.4,68.8 0.9,75.5 0,82.5 0,89.7 c 0,49.7 39,90.1 87.1,90.1 z"
   id="path847"
   style="fill:url(#SVGID_2_)" />
<path
   class="st2"
   d="M 127.3,59.7 C 121.5,54.1 93.3,31.2 66.3,30.4 18.1,29.2 4,64.2 2.7,68.7 12,29.5 46.4,0.2 87.2,0 c 33.3,0 67,32.7 91.9,62.2 0,0 0.1,-0.1 0.1,-0.1 0,0 11.2,12.9 23.5,26.8 0,0 14,16.5 28.8,31 5.8,5.6 33.9,28.2 60.9,29 49.5,1.4 63.2,-35.6 63.9,-38.4 -9.1,39.5 -43.6,68.9 -84.6,69.1 -33.3,0 -67,-32.7 -92,-62.2 0,0.1 -0.1,0.1 -0.1,0.2 0,0 -11.2,-12.9 -23.5,-26.8 0.1,0 -13.9,-16.6 -28.8,-31.1 z M 2.7,69.1 c 0,-0.1 0,-0.2 0.1,-0.3 -0.1,0.1 -0.1,0.2 -0.1,0.3 z"
   id="path849" />
</svg>
